<svg xmlns="http://www.w3.org/2000/svg" viewBox="0 0 720 620">
<defs>
  <linearGradient id="bg" x1="0" x2="1" y1="0" y2="1">
    <stop offset="0%" stop-color="#0d1728"/>
    <stop offset="100%" stop-color="#182b41"/>
  </linearGradient>
  <linearGradient id="gold" x1="0" x2="1">
    <stop offset="0%" stop-color="#b38728"/>
    <stop offset="100%" stop-color="#f8df8a"/>
  </linearGradient>
</defs>
<rect width="720" height="620" rx="40" fill="url(#bg)"/>
<circle cx="560" cy="90" r="110" fill="#d4af37" opacity=".16"/>
<circle cx="130" cy="500" r="150" fill="#3ccab4" opacity=".1"/>
<rect x="84" y="106" width="552" height="392" rx="30" fill="rgba(255,255,255,.04)" stroke="rgba(255,255,255,.08)"/>
<rect x="428" y="160" width="112" height="150" rx="30" fill="#f8fafc"/>
<rect x="328" y="252" width="258" height="68" rx="34" fill="#f8fafc"/>
<rect x="285" y="310" width="120" height="145" rx="48" fill="#f8fafc"/>
<rect x="466" y="318" width="44" height="140" rx="20" fill="#f8fafc"/>
<rect x="250" y="220" width="118" height="20" rx="10" fill="url(#gold)"/>
<rect x="154" y="210" width="112" height="180" rx="34" fill="#d4af37" opacity=".94"/>
<circle cx="214" cy="180" r="54" fill="#fde68a"/>
<rect x="126" y="402" width="334" height="34" rx="17" fill="rgba(255,255,255,.08)"/>
<text x="360" y="540" text-anchor="middle" fill="#fff7d0" font-size="34" font-family="Arial, Helvetica, sans-serif" font-weight="700">Kerviqo Dentaire</text>
<text x="360" y="576" text-anchor="middle" fill="#b7c3d1" font-size="20" font-family="Arial, Helvetica, sans-serif">Réservation intelligente • Expérience premium</text>
</svg>