<svg xmlns="http://www.w3.org/2000/svg" viewBox="0 0 600 420">
    <defs>
      <linearGradient id="bg" x1="0" x2="1" y1="0" y2="1">
        <stop offset="0%" stop-color="#091321"/>
        <stop offset="100%" stop-color="#122033"/>
      </linearGradient>
      <linearGradient id="gold" x1="0" x2="1">
        <stop offset="0%" stop-color="#b38728"/>
        <stop offset="100%" stop-color="#f8df8a"/>
      </linearGradient>
    </defs>
    <rect width="600" height="420" rx="32" fill="url(#bg)"/>
    <circle cx="478" cy="80" r="92" fill="#14b8a6" opacity=".14"/>
    <circle cx="105" cy="340" r="120" fill="#3ccab4" opacity=".09"/>
    <rect x="55" y="55" width="490" height="245" rx="28" fill="rgba(255,255,255,.04)" stroke="rgba(255,255,255,.08)"/>
    <path d="M205 150c0-52 42-94 95-94s95 42 95 94c0 28-13 56-32 80l-63 79-63-79c-19-24-32-52-32-80Z" fill="#f8fafc"/><path d="M266 150h68" stroke="#d4af37" stroke-width="18" stroke-linecap="round"/><path d="M300 116v68" stroke="#d4af37" stroke-width="18" stroke-linecap="round"/>
    <rect x="55" y="320" width="490" height="42" rx="21" fill="rgba(212,175,55,.12)" stroke="rgba(212,175,55,.22)"/>
    <text x="300" y="348" text-anchor="middle" fill="#fff7d0" font-size="30" font-family="Arial, Helvetica, sans-serif" font-weight="700">Soins dentaires</text>
    <text x="300" y="390" text-anchor="middle" fill="#b7c3d1" font-size="18" font-family="Arial, Helvetica, sans-serif">Prévention et traitement</text>
    </svg>