<svg xmlns="http://www.w3.org/2000/svg" viewBox="0 0 600 420">
    <defs>
      <linearGradient id="bg" x1="0" x2="1" y1="0" y2="1">
        <stop offset="0%" stop-color="#091321"/>
        <stop offset="100%" stop-color="#122033"/>
      </linearGradient>
      <linearGradient id="gold" x1="0" x2="1">
        <stop offset="0%" stop-color="#b38728"/>
        <stop offset="100%" stop-color="#f8df8a"/>
      </linearGradient>
    </defs>
    <rect width="600" height="420" rx="32" fill="url(#bg)"/>
    <circle cx="478" cy="80" r="92" fill="#f59e0b" opacity=".14"/>
    <circle cx="105" cy="340" r="120" fill="#3ccab4" opacity=".09"/>
    <rect x="55" y="55" width="490" height="245" rx="28" fill="rgba(255,255,255,.04)" stroke="rgba(255,255,255,.08)"/>
    <path d="M300 95c70 0 120 70 100 150-14 58-54 109-100 109s-86-51-100-109c-20-80 30-150 100-150Z" fill="#f8fafc"/><path d="M300 120c46 0 80 44 65 99-10 38-33 76-65 76s-55-38-65-76c-15-55 19-99 65-99Z" fill="#fde68a"/><path d="M460 130l12 24 24 12-24 12-12 24-12-24-24-12 24-12 12-24Z" fill="#fde68a"/>
    <rect x="55" y="320" width="490" height="42" rx="21" fill="rgba(212,175,55,.12)" stroke="rgba(212,175,55,.22)"/>
    <text x="300" y="348" text-anchor="middle" fill="#fff7d0" font-size="30" font-family="Arial, Helvetica, sans-serif" font-weight="700">Esthétique dentaire</text>
    <text x="300" y="390" text-anchor="middle" fill="#b7c3d1" font-size="18" font-family="Arial, Helvetica, sans-serif">Sourire harmonieux et naturel</text>
    </svg>